<svg width="21" height="21" viewBox="0 0 21 21" fill="none" xmlns="http://www.w3.org/2000/svg">
<g clip-path="url(#clip0)">
<path d="M2.96564 10.9118L17.466 20.912C17.6195 21.0175 17.8185 21.0285 17.9825 20.943C18.147 20.8565 18.25 20.6865 18.25 20.5005L18.25 0.500023C18.25 0.314018 18.147 0.143517 17.9825 0.0570144C17.9095 0.0190124 17.8295 1.14073e-05 17.75 1.14004e-05C17.6505 1.13917e-05 17.5515 0.0300121 17.466 0.0885143L2.96564 10.0887C2.83013 10.1823 2.74963 10.3358 2.74963 10.5003C2.74963 10.6648 2.83063 10.8183 2.96564 10.9118Z" fill="white"/>
</g>
<defs>
<clipPath id="clip0">
<rect width="21" height="21" fill="white" transform="translate(21 21) rotate(-180)"/>
</clipPath>
</defs>
</svg>
