<svg width="1237" height="124" viewBox="0 0 1237 124" fill="none" xmlns="http://www.w3.org/2000/svg">
<g clip-path="url(#clip0)">
<path d="M11.8941 66.8972C12.1344 67.4881 12.0743 68.2563 11.9542 68.7881C11.7139 69.6153 11.1733 70.5016 9.49147 70.5016C7.86968 70.5016 6.90862 69.6153 6.90862 68.1972V65.7745H0.000976562V67.7245C0.000976562 73.3379 4.50596 75.0515 9.31128 75.0515C13.9364 75.0515 17.7206 73.5152 18.3813 69.3199C18.6816 67.1336 18.4414 65.7154 18.3813 65.1836C17.3001 59.9247 7.56935 58.3293 6.84855 55.3749C6.72842 54.9613 6.72842 54.4885 6.84855 54.0749C7.02875 53.2477 7.56935 52.3613 9.19114 52.3613C10.6928 52.3613 11.5938 53.2477 11.5938 54.6658V56.2021H17.9608V54.4295C17.9008 48.9342 12.8552 48.0479 9.25121 48.0479C4.68616 48.0479 0.96204 49.5251 0.301309 53.6613C0.121109 54.784 0.061043 55.7885 0.361375 57.0294C1.50264 62.1701 10.5727 63.6473 11.8941 66.8972Z" fill="white"/>
<path d="M27.3912 48.875L22.646 74.0469H29.5536L33.0375 51.1795H33.1576L36.6415 74.0469H43.489L38.8039 48.875H27.3912ZM66.074 48.875L62.8905 68.138H62.7103L59.5868 48.875H49.1353L48.5947 74.0469H55.0218L55.202 51.4158H55.3221L59.5868 74.0469H66.074L70.3387 51.4158H70.4589L70.6391 74.0469H77.0061L76.4655 48.875H66.074Z" fill="white"/>
<path d="M91.1898 66.8498C91.4301 67.4407 91.37 68.2089 91.2498 68.7407C91.0696 69.5679 90.469 70.4543 88.7871 70.4543C87.1653 70.4543 86.2043 69.5679 86.2043 68.1498V65.7272H79.3567V67.6771C79.3567 73.2905 83.8617 75.0041 88.667 75.0041C93.2921 75.0041 97.0763 73.4678 97.677 69.2725C97.9773 67.0862 97.737 65.6681 97.677 65.1363C96.5958 59.8774 86.865 58.282 86.1442 55.3275C86.0241 54.9139 86.0241 54.4412 86.1442 54.0276C86.3244 53.2003 86.865 52.314 88.4868 52.314C89.9885 52.314 90.8895 53.2003 90.8895 54.6184V56.1548H97.2565V54.3821C97.2565 48.8868 92.271 48.0596 88.667 48.0596C84.1019 48.0596 80.3778 49.5368 79.7171 53.673C79.5369 54.7957 79.5369 55.8002 79.7772 57.0411C80.7382 62.0636 89.8683 63.5409 91.1898 66.8498Z" fill="white"/>
<path d="M111.04 70.2653C112.842 70.2653 113.383 69.0835 113.503 68.4335C113.563 68.1381 113.563 67.7835 113.563 67.4881V48.8751H120.05V66.8972C120.05 67.429 120.05 68.0199 119.99 68.5517C119.509 73.2788 115.785 74.756 111.04 74.756C106.355 74.756 102.571 73.2197 102.09 68.5517C102.09 68.3153 102.03 67.3699 102.03 66.8972V48.816H108.517V67.429C108.517 67.7835 108.517 68.1381 108.577 68.3744C108.697 69.0244 109.238 70.2653 111.04 70.2653ZM142.335 48.8751L142.695 68.6108H142.575L136.688 48.8751H127.198V73.7515H133.505L133.144 53.3068H133.265L139.572 73.7515H148.702V48.8751H142.335ZM164.379 69.9698C166.241 69.9698 166.902 68.788 167.022 68.1381C167.082 67.8426 167.082 67.4881 167.082 67.1926V63.5291H164.439V59.8656H173.509V66.6018C173.509 67.0745 173.509 67.429 173.449 68.2562C173.029 72.8652 169.004 74.4606 164.439 74.4606C159.934 74.4606 155.85 72.8061 155.429 68.2562C155.369 67.429 155.369 67.0745 155.369 66.6018V56.0248C155.369 55.5521 155.429 54.784 155.489 54.3704C156.09 49.6432 159.934 48.166 164.499 48.166C169.004 48.166 173.029 49.6432 173.509 54.3704C173.569 55.1976 173.569 56.0248 173.569 56.0248V56.9112H167.142V55.493C167.142 55.493 167.142 54.9022 167.082 54.5476C166.962 54.0158 166.481 52.7159 164.499 52.7159C162.637 52.7159 162.096 53.9567 161.976 54.5476C161.916 54.9022 161.856 55.3158 161.856 55.7294V67.2517C161.856 67.5472 161.856 67.9017 161.916 68.1972C161.916 68.8471 162.577 69.9698 164.379 69.9698Z" fill="white"/>
</g>
<path d="M440.034 50.332L442.916 44.2241H406.355L403.516 50.332H417.668L403 80.1402H412.463L427.13 50.332H440.034Z" fill="white"/>
<path d="M581.075 74.7631C581.075 74.7631 579.225 75.6234 578.451 74.8061C577.634 73.9889 578.365 72.4834 578.365 72.4834L586.108 56.2674H578.236L577.032 58.4181C572.429 54.3749 563.784 56.4825 558.45 62.0742C555.353 65.3002 553.59 69.1284 553.374 72.4404C552.514 72.9996 551.052 73.9029 549.159 74.6341C549.159 74.6341 547.31 75.4944 546.535 74.6771C545.718 73.8599 546.449 72.3114 546.449 72.3114L560.128 44.1377H552.256L545.073 58.2891C540.47 54.2458 531.825 56.3535 526.491 61.9452C525.416 63.1065 524.513 64.3109 523.738 65.5153V65.4723C523.695 65.6013 523.652 65.6873 523.566 65.7734C523.394 66.0744 523.222 66.3325 523.093 66.6336C518.835 74.0319 513.501 75.2793 513.501 75.2793C502.275 78.6343 500.984 73.1286 500.984 73.1286C513.587 68.4832 518.319 62.9345 517.889 58.7192C517.458 54.5039 511.652 54.2888 511.652 54.2888C502.146 53.7297 493.887 60.3967 491.909 66.8917C491.306 68.8703 491.134 70.935 491.478 72.7845C487.65 74.8061 485.457 75.1503 485.457 75.1503C482.274 76.1396 481.886 74.6341 481.499 73.7308C481.112 72.7845 479.693 64.698 479.693 64.698L493.07 55.9663H484.897L474.832 62.2033C472.596 63.1496 473.456 60.7838 473.456 60.7838L481.671 44.1807H473.8L460.509 71.15C458.96 72.0533 455.906 73.8599 453.67 74.7201C453.67 74.7201 451.82 75.5804 451.046 74.7631C450.229 73.9459 450.96 72.3974 450.96 72.3974L458.702 56.1814H450.831L449.626 58.3321C445.024 54.2888 436.378 56.3965 431.045 61.9882C425.668 67.5799 424.335 74.9782 427.991 78.5053C430.916 81.3011 436.206 80.785 440.938 77.602C440.938 77.602 442.142 76.5697 442.787 77.7741C443.476 79.0215 446.142 81.8603 452.422 79.4086C454.444 78.6343 456.208 77.731 457.756 76.8708L456.121 80.1828H463.993L467.95 72.2253L471.391 70.0317C471.391 70.0317 472.424 69.2144 472.854 70.978C472.854 70.978 474.574 77.688 475.219 78.5483C475.865 79.4086 477.198 81.3872 482.704 79.8387C486.962 78.6343 490.876 77.1289 492.984 76.2256C494.833 78.8064 498.404 80.5269 504.253 80.5269C512.856 80.5269 518.964 76.3976 521.545 74.247C521.717 75.9675 522.362 77.473 523.566 78.5483C526.491 81.3442 531.782 80.828 536.513 77.645C536.513 77.645 537.718 76.6127 538.363 77.8171C539.051 79.0645 541.761 81.9033 547.998 79.4516C550.88 78.3332 552.772 77.2579 554.02 76.3976C554.364 77.3009 554.837 78.0751 555.525 78.7203C558.45 81.5162 563.741 81 568.472 77.8171C568.472 77.8171 569.676 76.7848 570.322 77.9891C571.01 79.2365 573.72 82.0754 579.957 79.6236C586.194 77.1719 588 74.9352 588 74.9352L586.409 72.1393C585.978 72.0533 584.043 73.5588 581.075 74.7631ZM444.508 70.1177C441.755 73.9459 437.927 75.8815 435.905 74.419C433.884 72.9566 434.443 68.6983 437.153 64.8701C439.862 61.0419 443.734 59.1063 445.755 60.5688C447.777 61.9882 447.218 66.2895 444.508 70.1177ZM500.253 67.3218C500.253 67.3218 502.017 61.386 507.737 59.0203C507.737 59.0203 509.372 58.4611 510.232 59.1923C510.232 59.1923 511.437 60.3967 509.974 62.5474C508.684 64.483 505.544 68.01 502.146 69.2144C502.189 69.1714 499.092 70.5048 500.253 67.3218ZM539.997 70.1177C537.287 73.9459 533.416 75.8815 531.395 74.419C529.373 72.9566 529.932 68.6983 532.642 64.8701C535.352 61.0419 539.223 59.1063 541.245 60.5688C543.266 61.9882 542.707 66.2895 539.997 70.1177ZM571.956 70.2467C569.246 74.0749 565.375 76.0105 563.354 74.5481C561.332 73.0856 561.891 68.8273 564.601 64.9991C567.311 61.1709 571.182 59.2353 573.204 60.6978C575.268 62.1602 574.666 66.4186 571.956 70.2467Z" fill="white"/>
<path d="M742.296 107.07C741.881 107.07 741.337 107.07 740.87 106.603C740.403 106.137 740.403 105.592 740.403 105.178V91.5158C740.403 90.8936 740.403 90.6085 740.637 90.2196C740.896 89.753 741.389 89.4678 742.011 89.4678C742.607 89.4678 743.125 89.753 743.359 90.1937C743.566 90.6085 743.592 90.8677 743.592 91.5158V104.167H749.192C749.762 104.167 750.073 104.193 750.384 104.374C750.825 104.633 751.058 105.074 751.058 105.618C751.058 106.137 750.799 106.603 750.384 106.863C750.047 107.044 749.762 107.07 749.192 107.07H742.296ZM653.325 107.148C652.729 107.148 652.211 106.863 651.977 106.396C651.77 105.981 651.744 105.722 651.744 105.074V92.4231H648.867C648.322 92.4231 648.011 92.3972 647.674 92.2157C647.233 91.9565 647 91.5158 647 90.9714C647 90.4529 647.259 89.9863 647.674 89.727C648.011 89.5456 648.296 89.5197 648.867 89.5197H657.784C658.355 89.5197 658.666 89.5456 658.977 89.727C659.418 89.9863 659.651 90.427 659.651 90.9714C659.651 91.4899 659.392 91.9565 658.977 92.2157C658.64 92.3972 658.355 92.4231 657.784 92.4231H654.907V105.074C654.907 105.696 654.907 105.981 654.673 106.37C654.414 106.889 653.922 107.148 653.325 107.148ZM663.773 107.148C663.176 107.148 662.658 106.863 662.399 106.396C662.191 105.981 662.165 105.722 662.165 105.074V91.4899C662.165 90.8677 662.165 90.5825 662.399 90.1937C662.658 89.727 663.176 89.4419 663.773 89.4419C664.369 89.4419 664.887 89.7271 665.121 90.1678C665.328 90.5825 665.354 90.8418 665.354 91.4899V105.074C665.354 105.696 665.354 105.981 665.121 106.37C664.861 106.889 664.369 107.148 663.773 107.148ZM680.727 107.148C679.871 107.148 679.483 106.474 679.197 105.955L675.205 98.9041L672.69 101.937V105.1C672.69 105.722 672.69 106.007 672.457 106.396C672.198 106.863 671.705 107.148 671.083 107.148C670.487 107.148 669.968 106.863 669.735 106.396C669.528 105.981 669.502 105.722 669.502 105.074V91.4899C669.502 90.8677 669.502 90.5825 669.735 90.1937C669.994 89.727 670.513 89.4419 671.109 89.4419C671.705 89.4419 672.224 89.7271 672.483 90.1678C672.69 90.5825 672.716 90.8418 672.716 91.4899V97.4264L678.575 90.3233C678.99 89.8307 679.353 89.4419 679.975 89.4419C680.338 89.4419 680.675 89.5715 680.96 89.8048C681.323 90.1159 681.53 90.5307 681.53 90.9714C681.53 91.4121 681.323 91.7491 680.882 92.2676L677.435 96.4413L681.945 104.374C682.256 104.892 682.386 105.178 682.386 105.566C682.412 106.111 682.127 106.578 681.608 106.889C681.271 107.122 680.934 107.148 680.727 107.148ZM696.411 107.148C695.555 107.148 695.166 106.474 694.881 105.955L690.889 98.9041L688.374 101.937V105.1C688.374 105.722 688.374 106.007 688.141 106.396C687.882 106.863 687.363 107.148 686.767 107.148C686.171 107.148 685.652 106.863 685.393 106.396C685.186 105.981 685.16 105.722 685.16 105.074V91.4899C685.16 90.8677 685.16 90.5825 685.393 90.1937C685.652 89.727 686.145 89.4419 686.767 89.4419C687.363 89.4419 687.882 89.7271 688.115 90.1678C688.323 90.5825 688.348 90.8418 688.348 91.4899V97.4264L694.207 90.3233C694.622 89.8307 694.985 89.4419 695.607 89.4419C695.97 89.4419 696.307 89.5715 696.592 89.8048C696.955 90.1159 697.163 90.5307 697.163 90.9714C697.163 91.4121 696.955 91.7491 696.514 92.2676L693.067 96.4413L697.577 104.374C697.862 104.892 697.992 105.178 698.018 105.566C698.044 106.111 697.759 106.578 697.24 106.889C696.955 107.122 696.644 107.148 696.411 107.148ZM723.864 97.1672C725.445 97.1672 726.431 96.2858 726.431 94.834C726.431 93.3823 725.445 92.449 723.864 92.449H720.364V97.1413L723.864 97.1672ZM728.038 107.148C727.182 107.148 726.793 106.474 726.508 105.955L723.086 99.941H720.364V105.1C720.364 105.722 720.364 106.007 720.131 106.396C719.872 106.863 719.379 107.148 718.757 107.148C718.135 107.148 717.642 106.863 717.409 106.396C717.202 105.981 717.176 105.722 717.176 105.074V91.4121C717.176 90.9973 717.176 90.4529 717.642 89.9863C718.109 89.5197 718.653 89.5197 719.068 89.5197H724.046C727.364 89.5197 729.593 91.6195 729.593 94.7563C729.593 96.9857 728.401 98.6967 726.405 99.4226L729.23 104.374C729.515 104.892 729.671 105.178 729.671 105.566C729.697 106.111 729.412 106.578 728.893 106.889C728.608 107.122 728.271 107.148 728.038 107.148ZM734.7 107.148C734.104 107.148 733.585 106.863 733.326 106.396C733.119 105.981 733.093 105.722 733.093 105.074V91.4899C733.093 90.8677 733.093 90.5825 733.326 90.1937C733.585 89.727 734.104 89.4419 734.7 89.4419C735.296 89.4419 735.815 89.7271 736.048 90.1678C736.256 90.5825 736.282 90.8418 736.282 91.4899V105.074C736.282 105.696 736.282 105.981 736.048 106.37C735.815 106.889 735.296 107.148 734.7 107.148ZM762.128 100.874L759.872 94.6785L757.617 100.874H762.128ZM765.446 107.148C765.109 107.148 764.798 107.044 764.538 106.837C764.227 106.603 764.098 106.318 763.89 105.722L763.113 103.648H756.554L755.776 105.722C755.569 106.292 755.439 106.578 755.128 106.837C754.869 107.044 754.558 107.148 754.247 107.148C753.806 107.148 753.365 106.966 753.08 106.681C752.432 106.007 752.717 105.255 752.925 104.659L758.083 90.8936C758.265 90.4011 758.42 90.1418 758.68 89.9085C758.991 89.5974 759.354 89.4678 759.82 89.4678C760.287 89.4678 760.65 89.5974 760.961 89.9085C761.22 90.1418 761.35 90.4011 761.557 90.8936L766.742 104.659C766.975 105.255 767.235 106.007 766.586 106.681C766.327 106.992 765.887 107.148 765.446 107.148ZM706.962 107.2C703.281 107.2 700.61 104.607 700.61 101.056V91.5158C700.61 90.8936 700.61 90.6085 700.844 90.2196C701.103 89.753 701.596 89.4678 702.218 89.4678C702.814 89.4678 703.332 89.753 703.566 90.1937C703.773 90.6085 703.799 90.8677 703.799 91.5158V100.952C703.799 103.026 705.017 104.322 706.988 104.322C708.958 104.322 710.176 103.026 710.176 100.952V91.5158C710.176 90.8936 710.176 90.6085 710.41 90.2196C710.669 89.753 711.187 89.4678 711.784 89.4678C712.38 89.4678 712.898 89.753 713.132 90.1937C713.339 90.6085 713.365 90.8677 713.365 91.5158V101.056C713.313 104.633 710.643 107.2 706.962 107.2Z" fill="white"/>
<path d="M738.2 63.0258L736.696 70.777C736.411 72.3324 734.856 73.6027 733.3 73.6027H680.675C679.094 73.6027 677.564 72.3324 677.279 70.777L675.542 61.8074L738.2 63.0258ZM675.542 61.8333L667.22 19.3442C671.239 17.6073 675.879 20.3811 676.423 24.8659C676.605 26.2658 676.397 27.6139 675.931 28.8582C680.286 28.4953 684.201 31.658 684.745 36.0391C685.289 40.5239 682.101 44.6199 677.59 45.1902C676.138 45.3717 675.309 45.1643 674.038 44.6458C674.038 45.0865 674.09 45.5013 674.142 45.942C675.205 54.4709 680.805 58.1262 689.411 58.1262C696.955 58.1262 704.914 53.3821 704.914 44.7754C704.914 44.1792 704.914 43.6088 704.836 43.0385C703.514 43.9718 701.855 44.5162 700.092 44.5162C695.555 44.5162 691.874 40.835 691.874 36.2983C691.874 31.8913 695.348 28.2879 699.729 28.1064C699.107 26.9398 698.744 25.6177 698.744 24.2178C698.744 19.6812 702.425 16 706.962 16C711.498 16 715.179 19.6812 715.179 24.2178C715.179 25.6177 714.817 26.9398 714.194 28.1064C718.575 28.2879 722.075 31.8913 722.075 36.2983C722.075 40.835 718.394 44.5162 713.857 44.5162C712.12 44.5162 710.487 43.9459 709.139 43.0126C709.087 43.5829 709.036 44.1792 709.036 44.7495C709.036 53.3562 716.657 58.1002 724.59 58.1002C733.197 58.1002 738.77 54.3672 739.807 45.8383C739.859 45.4235 739.911 44.9828 739.937 44.568C738.692 45.0606 737.837 45.268 736.437 45.0865C731.926 44.5421 728.738 40.4461 729.282 35.9354C729.826 31.5543 733.741 28.3916 738.096 28.7545C737.629 27.5361 737.422 26.1621 737.604 24.7622C738.148 20.2515 742.296 17.7887 746.755 19.2405L738.2 62.9999" fill="white"/>
<path d="M851 41.1753H857.861L870.863 70.2118L883.372 41.1753H889.286L872.493 77.5278H868.248L851 41.1753Z" fill="white"/>
<path d="M895.427 77.5278H901.34V41.1753H895.427V77.5278Z" fill="white"/>
<path d="M981.399 77.7933H975.523V61.228H954.713V77.7933H948.572V41.4028H954.713V56.755H975.523V41.4028H981.399V77.7933Z" fill="white"/>
<path d="M986.365 40.9473H993.681L1005.96 58.1569L1017.56 41.1747H1023.93L1009.03 62.8952V77.5272H1002.66V62.8952L986.365 40.9473Z" fill="white"/>
<path d="M942.204 45.8755V41.4026C938.678 40.4549 934.66 40 931.59 40C921.886 40 912.447 44.0181 908.429 53.002C906.078 57.7403 907.026 64.8289 910.097 69.3019C917.905 79.2334 932.082 79.4609 943.417 76.3904V72.1449C942.962 72.1449 942.962 72.1449 942.696 72.3723C934.433 75.2153 924.994 76.6179 916.958 68.1268C913.887 64.3361 912.94 58.9154 914.342 54.1771C916.958 47.0886 923.326 43.2979 931.097 44.0181C931.097 44.0181 936.518 43.7528 942.204 45.8755Z" fill="white"/>
<path d="M868.74 92.4249H870.636V93.1451H867.793V85.8291H868.74V92.4249Z" fill="white"/>
<path d="M882.652 90.3022H880.302L881.477 87.2318L882.652 90.3022ZM883.145 91.0224L883.865 93.1452H884.813L881.515 85.3364L878.217 93.1452H879.165L879.885 91.0224H883.145Z" fill="white"/>
<path d="M893.759 89.5819H894.479C895.427 89.5819 896.374 89.8093 896.374 90.9844C896.374 92.1595 895.427 92.387 894.706 92.387H893.759V89.5819ZM893.076 93.1451H894.744C896.147 93.1451 897.36 92.4249 897.36 91.0223C897.36 90.0747 896.905 89.3544 895.957 89.127C896.412 88.8995 896.678 88.4068 896.678 87.7244C896.678 86.3219 895.502 85.8291 894.327 85.8291H893.152L893.076 93.1451ZM893.759 86.5114H893.986C895.161 86.5114 895.882 86.5114 895.882 87.6865C895.882 88.8616 894.934 88.8616 893.986 88.8616H893.759V86.5114Z" fill="white"/>
<path d="M909.377 86.2842C911.044 86.2842 912.22 87.6867 912.22 89.3546C912.22 91.0225 911.044 92.4251 909.377 92.4251C907.709 92.4251 906.306 91.0225 906.306 89.3546C906.306 87.6867 907.481 86.2842 909.377 86.2842ZM909.377 85.564C907.254 85.564 905.358 87.2319 905.358 89.3546C905.358 91.4774 907.254 93.1453 909.377 93.1453C911.272 93.1453 913.167 91.4774 913.167 89.3546C913.129 87.2319 911.234 85.564 909.377 85.564Z" fill="white"/>
<path d="M921.393 86.5113H921.62C922.568 86.5113 923.516 86.5112 923.516 87.9138C923.516 88.8615 922.568 89.0889 921.62 89.0889H921.393V86.5113ZM921.393 89.8091H921.62L923.743 93.107H924.691L922.34 89.8091C923.516 89.5817 924.236 88.8615 924.236 87.6864C924.236 86.0185 923.061 85.791 921.62 85.791H920.445V93.107H921.393V89.8091Z" fill="white"/>
<path d="M936.29 90.3022H933.674L935.077 87.2318L936.29 90.3022ZM936.517 91.0224L937.465 93.1452H938.413L935.115 85.3364L931.59 93.1452H932.537L933.485 91.0224H936.517Z" fill="white"/>
<path d="M947.169 93.1451H946.222V86.5114H944.554V85.8291H948.799V86.5114H947.169V93.1451Z" fill="white"/>
<path d="M959.224 86.2842C960.892 86.2842 962.294 87.6867 962.294 89.3546C962.294 91.0225 960.892 92.4251 959.224 92.4251C957.556 92.4251 956.381 91.0225 956.381 89.3546C956.381 87.6867 957.556 86.2842 959.224 86.2842ZM959.224 85.564C957.101 85.564 955.433 87.2319 955.433 89.3546C955.433 91.4774 957.101 93.1453 959.224 93.1453C961.347 93.1453 963.242 91.4774 963.242 89.3546C963.204 87.2319 961.347 85.564 959.224 85.564Z" fill="white"/>
<path d="M971.24 85.8291H972.188V93.1451H971.24V85.8291Z" fill="white"/>
<path d="M981.892 86.5113H982.119C983.294 86.5113 984.015 86.5112 984.015 87.9138C984.015 88.8615 983.067 89.0889 982.347 89.0889H981.892V86.5113ZM981.892 89.8091H982.119L984.47 93.107H985.417L983.067 89.8091C984.242 89.5817 984.962 88.8615 984.962 87.6864C984.962 86.0185 983.56 85.791 982.119 85.791H981.172V93.107H981.892V89.8091Z" fill="white"/>
<path d="M993.453 85.8291H997.471V86.5114H994.401V88.6342H997.244V89.3544H994.401V92.4249H997.471V93.1451H993.453V85.8291Z" fill="white"/>
<path d="M1008.35 87.2319C1007.9 86.777 1007.63 86.2842 1006.95 86.2842C1006.27 86.2842 1005.77 86.7391 1005.77 87.4593C1005.77 88.1795 1006.49 88.407 1006.95 88.6344L1007.4 88.8618C1008.35 89.3167 1009.07 89.8095 1009.07 90.9846C1009.07 92.1597 1008.12 93.1074 1006.95 93.1074C1005.77 93.1074 1004.83 92.3872 1004.6 91.2121L1005.32 90.9846C1005.55 91.9323 1006.04 92.3872 1006.99 92.3872C1007.71 92.3872 1008.39 91.9323 1008.39 90.9846C1008.39 90.037 1007.67 89.8095 1006.99 89.5821L1006.53 89.3546C1005.81 88.8998 1005.13 88.6344 1005.13 87.4593C1005.13 86.2842 1006.08 85.564 1007.02 85.564C1007.97 85.564 1008.69 86.0188 1008.92 86.7391L1008.35 87.2319Z" fill="white"/>
<path fill-rule="evenodd" clip-rule="evenodd" d="M1180.38 76.5619C1180.18 76.5619 1180.03 76.6121 1179.88 76.6625C1178.97 76.8134 1178.02 77.1153 1177.16 77.5178C1175.9 78.021 1174.7 78.7254 1173.64 79.6815C1172.74 80.4362 1171.93 81.2916 1171.23 82.3483C1170.22 83.8074 1169.37 85.4679 1168.81 87.4805C1168.76 87.5812 1168.71 87.6818 1168.71 87.7824C1166.9 93.8708 1167.51 96.3866 1168.61 97.3929C1169.22 97.9967 1170.07 98.047 1170.72 97.9967C1170.77 97.9967 1170.87 97.9967 1171.03 97.9967C1171.78 97.9464 1172.58 97.6445 1173.44 97.1917C1174.75 96.4872 1175.95 95.3299 1177.01 93.8707C1177.11 93.6695 1177.46 92.7638 1177.61 92.5625C1177.87 93.7198 1178.42 94.7764 1180.43 94.223C1180.58 94.1726 1180.78 94.1223 1180.93 93.9714C1183.25 93.1663 1184.1 91.4555 1184.6 90.4995C1185.96 87.8327 1186.26 84.8138 1186.46 81.4929C1186.72 78.5745 1185.26 75.8071 1180.38 76.5619ZM1222.82 57.5925C1223.53 57.2403 1224.33 56.8377 1225.14 56.2842C1225.79 55.8817 1226.44 55.3786 1227 54.8251C1227.95 53.8691 1228.91 52.8124 1229.26 51.3029C1230.07 47.7808 1227.6 46.2209 1225.34 46.9254C1224.84 47.1266 1224.79 47.2273 1224.38 46.8751C1224.33 46.6235 1224.13 46.6738 1224.33 45.9694C1224.58 45.2649 1224.53 44.7114 1224.58 44.3089C1224.68 42.3969 1221.52 43.4032 1220.61 44.0573C1220.16 44.4095 1219.45 45.5668 1219.35 45.9694C1219.15 46.6235 1218.6 48.3846 1218.4 49.2903C1218.3 49.5922 1218.25 49.894 1218.2 50.1959C1218.05 50.9004 1217.9 51.6551 1217.79 52.3596C1217.39 54.8754 1217.44 56.2339 1218.2 57.3912C1219 58.6994 1222.22 57.8944 1222.82 57.5925ZM1139.14 88.99C1141 88.3862 1143.22 87.6315 1145.43 86.5748C1147.19 85.7195 1149 84.7635 1150.71 83.6062C1153.53 81.5935 1156.09 79.1783 1157.8 75.958C1160.41 71.1277 1156.74 65.3413 1149.5 66.247C1146.33 66.5992 1145.58 66.8507 1145.03 65.8444C1145.08 65.4922 1144.67 65.3412 1145.18 64.2846C1145.88 62.8254 1147.69 62.4229 1150.06 62.4732C1159.06 63.4292 1157.55 55.2779 1150.36 55.8817C1148.04 56.083 1145.58 56.7371 1143.77 57.5925C1141.71 58.5485 1139.09 60.8127 1137.58 63.077C1134.87 67.1526 1132.71 72.7378 1132.1 74.3479C1130.44 78.7255 1128.83 84.6125 1130.19 87.4302C1131.8 90.8014 1137.63 89.3926 1139.14 88.99ZM1116.91 64.3349C1117.27 64.3349 1117.72 64.184 1118.12 64.033C1119.18 63.7814 1120.64 63.3286 1122.19 62.8254C1124.16 62.1713 1126.42 61.2656 1128.73 60.1083C1130.54 59.2026 1132.4 58.0956 1134.16 56.888C1137.08 54.7244 1139.7 52.0577 1141.46 48.6361C1144.07 43.5038 1140.7 39.1263 1136.58 39.9817C1139.44 39.076 1142.06 37.0633 1143.27 34.4469C1144.83 29.6668 1142.21 27.7044 1137.99 27.5032C1136.48 27.3522 1134.72 27.5032 1132.96 27.8051C1132.86 27.8051 1132.76 27.8554 1132.66 27.8051C1130.39 28.1573 1128.38 28.7611 1126.52 29.7171C1124.41 30.7737 1122.5 32.3336 1120.84 34.6984C1119.78 36.1576 1118.73 37.9187 1117.87 39.9817C1117.57 40.7868 1117.22 41.4912 1116.91 42.2459C1116.16 43.9567 1115.51 45.7178 1114.9 47.5292C1112.79 53.6175 1111.48 59.6555 1112.94 62.5235C1113.19 63.1273 1113.55 63.5802 1114.1 63.8821C1114.75 64.3349 1115.66 64.5362 1116.91 64.3349ZM1129.49 36.3589C1129.84 35.4029 1130.64 34.4469 1132.1 33.8934C1132.1 33.8934 1132.15 33.8934 1132.2 33.8431C1134.36 33.0883 1135.12 35.2519 1134.06 36.9627C1133.26 38.2206 1132.4 39.076 1131.35 39.6798C1130.95 39.8811 1130.44 40.032 1130.04 40.183C1128.43 40.6358 1128.58 38.4722 1129.49 36.3589ZM1219.61 35.5035C1221.26 35.3525 1222.47 34.4972 1222.97 32.6355C1223.43 30.7737 1222.77 30.3712 1221.06 30.3712C1218.35 30.4215 1217.54 31.3775 1216.89 33.4908C1216.39 34.95 1217.34 35.7551 1219.61 35.5035ZM1155.39 85.6188C1153.12 86.3736 1151.41 86.7761 1146.53 90.5499C1144.42 92.16 1142.41 94.1223 1139.95 97.7451C1137.89 100.714 1137.28 106.198 1141.76 102.777C1148.6 97.5439 1150.76 96.2859 1154.53 94.6255C1157.5 93.3173 1157.95 94.5752 1156.59 97.6948C1155.89 99.3049 1154.98 100.714 1154.03 101.871C1153.17 102.877 1152.37 103.682 1151.66 104.236C1149.5 105.947 1150.76 102.425 1151.36 100.362C1151.61 99.5062 1151.06 99.1037 1150.61 99.0533C1149.35 98.8521 1147.89 100.009 1147.89 100.009L1145.48 102.123C1143.22 104.387 1142.06 106.903 1141.15 109.62C1138.79 116.765 1138.54 119.683 1141.56 119.985C1142.51 120.086 1143.82 119.683 1145.53 118.627C1145.58 118.576 1145.68 118.576 1145.78 118.526C1147.54 117.419 1149.2 116.211 1150.76 114.953C1152.22 113.746 1153.47 112.538 1154.78 111.23C1156.24 109.72 1157.6 108.11 1158.76 106.5C1161.92 102.173 1163.53 99.5062 1165.24 94.2733C1167.51 87.5308 1163.63 82.8011 1155.39 85.6188ZM1221.52 64.184C1221.06 64.0833 1220.51 64.1337 1219.86 64.2343C1218.35 64.4356 1217.64 65.7941 1217.09 67.9577C1216.89 68.3602 1216.74 69.115 1216.34 69.6181C1215.73 70.3729 1215.08 70.6748 1214.63 70.3729C1214.38 70.2219 1214.27 69.7691 1214.27 69.3666C1214.27 68.2093 1214.17 67.4042 1213.77 66.9011C1213.27 66.2469 1212.51 66.1463 1211.26 66.3476C1211.16 66.3476 1211.11 66.3979 1211.01 66.3979C1209.75 66.6998 1209.04 67.9074 1208.49 69.5678C1207.99 71.178 1207.64 73.2913 1207.33 75.5555C1207.28 75.8574 1207.23 76.109 1207.23 76.3103C1207.08 78.5242 1207.13 79.6312 1207.74 80.084C1208.14 80.3859 1208.84 80.3859 1209.9 80.1846C1210.05 80.1846 1210.25 80.1343 1210.45 80.084C1211.36 79.9331 1212.01 79.4299 1212.72 77.4675C1212.87 76.8637 1213.07 76.109 1213.32 75.153C1213.47 74.8007 1213.57 74.4485 1213.72 74.2473C1214.22 73.4422 1214.63 73.09 1215.43 73.3416C1215.53 73.3416 1215.73 73.5931 1215.83 73.895C1215.83 74.1969 1215.88 74.4485 1215.83 74.5995C1215.68 76.0084 1215.83 76.7631 1216.29 77.0147C1216.69 77.3669 1217.44 77.2159 1218.55 76.914C1220.31 76.4109 1221.16 75.7568 1222.22 70.5239C1222.27 70.222 1222.32 69.92 1222.42 69.6181C1223.18 65.6934 1222.87 64.4355 1221.52 64.184ZM1204.77 69.115C1204.22 69.0647 1203.56 69.1653 1202.76 69.2659C1200.9 69.6182 1200.09 71.178 1199.49 73.7441C1199.29 74.2473 1199.09 75.1026 1198.63 75.6561C1197.93 76.6121 1197.08 76.9644 1196.57 76.7128C1196.32 76.5618 1196.22 76.0587 1196.12 75.6561C1196.12 74.2976 1195.97 73.4422 1195.52 72.8887C1194.91 72.1843 1193.96 72.134 1192.5 72.5365C1192.4 72.5365 1192.35 72.5868 1192.25 72.5868C1190.74 73.0397 1189.88 74.3982 1189.28 76.3606C1188.68 78.2726 1188.33 80.6878 1188.02 83.254C1187.97 83.6062 1187.92 83.8577 1187.92 84.1596C1187.72 86.6755 1187.92 87.9334 1188.63 88.3359C1189.13 88.6881 1189.93 88.5875 1191.19 88.2856C1191.39 88.2353 1191.64 88.185 1191.85 88.0843C1192.9 87.8831 1193.71 87.2793 1194.51 84.9647C1194.76 84.2099 1194.96 83.3546 1195.22 82.2476C1195.37 81.8451 1195.52 81.4929 1195.72 81.191C1196.27 80.2349 1196.77 79.7821 1197.73 79.9834C1197.83 80.0337 1198.03 80.235 1198.18 80.5872C1198.23 80.9394 1198.23 81.2413 1198.23 81.3922C1198.08 83.0024 1198.23 83.8074 1198.79 84.1093C1199.29 84.4112 1200.14 84.21 1201.5 83.7571C1203.56 83.0527 1204.62 82.1973 1205.83 76.1593C1205.88 75.8071 1205.93 75.5052 1206.03 75.153C1206.78 70.6245 1206.43 69.2156 1204.77 69.115ZM1235.04 45.5668C1232.48 45.7178 1231.73 46.7241 1231.07 48.938C1230.62 50.4978 1231.57 51.2526 1233.69 50.9507C1235.3 50.7494 1236.45 49.7934 1236.85 47.8311C1237.31 45.919 1236.7 45.5165 1235.04 45.5668ZM1182.39 51.2526C1180.48 50.9004 1178.82 51.6551 1177.36 53.1143C1176.66 53.8187 1175.6 55.0263 1173.59 57.2906C1172.94 57.995 1171.13 60.4102 1170.02 61.7688C1170.57 60.058 1171.38 57.2403 1171.48 56.0327C1171.53 55.0766 1171.63 53.9194 1170.37 53.7181C1169.92 53.6175 1168.16 53.7181 1167.15 54.171C1165.39 54.9257 1163.88 56.3849 1163.23 58.6995C1161.37 64.8381 1160.92 67.5049 1160.36 72.0334C1160.16 73.6435 1160.41 77.065 1165.19 75.5052C1166.25 75.153 1168.06 73.4422 1168.71 72.6371C1169.82 71.6308 1170.52 70.7754 1171.93 69.1653C1173.24 67.7061 1175.05 65.2909 1175.7 64.4355C1175.55 65.3412 1175.3 65.945 1175.3 66.6998C1175.2 68.008 1175.1 71.4799 1178.07 70.3729C1180.13 69.6181 1181.49 68.7125 1182.49 65.3916C1182.99 64.184 1183.45 62.0707 1183.65 60.9637C1184.1 58.8001 1184.45 57.6931 1184.7 55.3785C1184.81 52.6615 1183.9 51.5545 1182.39 51.2526ZM1223.08 51.6048C1223.33 50.5482 1223.83 49.9444 1224.58 49.5921C1224.63 49.5418 1224.73 49.5418 1224.84 49.5418C1225.64 49.3406 1226.09 50.3972 1225.79 51.1016C1225.59 51.5042 1225.24 51.957 1224.94 52.3093C1224.63 52.6112 1224.28 52.8627 1223.93 52.9634C1223.23 53.2653 1222.87 52.7118 1223.08 51.6048ZM1142.71 75.5052C1143.67 73.1906 1145.28 71.9327 1147.14 71.3792C1147.29 71.3289 1147.49 71.2786 1147.74 71.2786C1149.75 71.0773 1150.41 73.5428 1149.35 75.1027C1148.65 76.0084 1147.79 76.8637 1146.84 77.5178C1145.98 78.172 1145.08 78.5745 1144.22 78.7255C1142.36 79.128 1141.71 77.9204 1142.71 75.5052ZM1203.16 61.97C1203.41 61.8694 1203.66 61.8694 1203.97 61.7688C1205.68 61.2656 1206.88 60.6618 1207.69 59.2026C1208.54 57.6428 1208.89 56.2843 1209.7 53.5672C1209.9 55.4289 1210.05 56.4352 1210.2 57.5925C1210.35 58.8504 1210.91 59.4039 1212.67 59.102C1214.38 58.8001 1215.13 58.4479 1215.73 57.2906C1216.34 56.083 1215.83 52.5105 1215.48 50.2966C1215.13 48.0827 1214.83 46.2712 1214.27 45.3152C1213.77 44.4599 1212.87 44.158 1211.26 44.3089C1208.24 44.6611 1207.08 45.7681 1205.83 48.0323C1205.57 48.5858 1205.07 49.5418 1204.67 50.2966C1203.11 53.7181 1201.7 57.7937 1201.3 60.3096C1201.1 61.2656 1201.8 62.2719 1203.16 61.97ZM1185.61 67.6558C1185.91 67.6055 1186.16 67.5049 1186.46 67.4042C1188.38 66.8004 1189.73 66.096 1190.74 64.3852C1191.75 62.5738 1192.15 61.014 1193.2 57.8944C1193.3 60.058 1193.45 61.165 1193.56 62.5235C1193.66 63.9827 1194.26 64.5362 1196.22 64.2343C1198.13 63.8318 1198.94 63.4795 1199.64 62.0706C1200.34 60.6618 1199.94 56.5861 1199.64 54.02C1199.34 51.5042 1199.09 49.3909 1198.53 48.2839C1198.03 47.3279 1197.03 46.9757 1195.27 47.177C1191.9 47.6801 1190.59 48.938 1189.13 51.5545C1188.83 52.1583 1188.17 53.3156 1187.82 54.171C1185.96 58.1963 1184.2 62.8757 1183.6 65.7438C1183.45 66.9011 1184.15 68.0583 1185.61 67.6558ZM1167.46 27.6541C1165.85 27.3019 1163.58 27.9057 1162.07 29.2139C1161.32 29.8177 1160.47 30.4719 1158.35 32.6355C1157.7 33.3399 1155.79 35.1513 1154.63 36.5098C1155.24 34.7488 1156.09 31.8304 1156.24 30.5222C1156.29 29.5158 1156.39 28.2579 1155.08 27.9057C1154.63 27.7044 1152.87 27.6038 1151.82 27.9057C1150 28.4592 1148.45 29.8681 1147.69 32.1826C1145.73 38.4722 1145.23 41.2396 1144.62 46.0197C1144.42 47.7808 1144.62 51.5042 1149.55 50.4475C1150.61 50.1959 1152.47 48.6361 1153.17 47.9317C1154.33 46.9757 1155.03 46.1203 1156.49 44.6611C1157.85 43.3026 1159.76 40.9377 1160.36 40.1326C1160.26 41.0383 1160.01 41.6421 1159.91 42.4975C1159.76 43.9064 1159.61 47.5795 1162.73 46.8247C1164.84 46.3216 1166.25 45.5668 1167.3 42.1453C1167.81 40.8874 1168.31 38.6734 1168.56 37.5665C1169.01 35.3526 1169.11 34.4469 1169.37 31.931C1169.67 29.063 1169.01 28.0567 1167.46 27.6541ZM1116.96 34.1953C1117.37 33.6921 1117.62 32.9877 1117.72 31.9813C1117.82 30.6228 1117.57 29.9184 1116.96 29.6668C1116.61 29.4655 1116.11 29.4152 1115.56 29.4152C1115.31 29.4152 1115.1 29.4152 1114.9 29.5158C1112.89 29.7674 1112.39 30.8241 1112.04 33.038C1111.79 34.6481 1112.84 35.5538 1114.9 35.3022C1115.76 35.2016 1116.46 34.8494 1116.96 34.1953ZM1130.95 69.0144C1131.3 68.5112 1131.6 67.7564 1131.7 66.8004C1131.8 65.4419 1131.55 64.7878 1130.95 64.4859C1130.54 64.2846 1130.09 64.2343 1129.54 64.2343C1129.29 64.2846 1129.08 64.2846 1128.83 64.3349C1126.87 64.5865 1126.32 65.6431 1125.97 67.8571C1125.72 69.4672 1126.77 70.3729 1128.83 70.1213C1129.74 70.0207 1130.44 69.6685 1130.95 69.0144ZM1125.66 48.5355C1126.62 46.07 1128.23 44.7114 1130.19 44.007C1130.34 43.9567 1130.59 43.9064 1130.84 43.8561C1132.96 43.5542 1133.66 46.1706 1132.55 47.8311C1131.85 48.7871 1130.95 49.7431 1129.99 50.4978C1129.08 51.152 1128.13 51.6048 1127.27 51.8564C1125.36 52.3596 1124.61 51.0513 1125.66 48.5355ZM1171.68 44.5605C1171.93 44.5102 1172.18 44.5102 1172.43 44.5102C1174.09 44.2083 1175.55 43.6548 1176.26 42.2459C1176.96 40.7364 1177.26 39.8307 1178.17 37.164C1178.12 39.3779 1178.07 39.7804 1178.37 41.0383C1178.62 42.3466 1179.22 43.0007 1180.98 42.9504C1182.69 42.9 1183.7 42.3969 1184.35 41.3402C1184.65 40.8874 1184.91 40.2333 1185.21 39.5791C1185.51 38.7238 1185.76 37.7174 1186.06 36.8621C1186.11 38.925 1186.11 38.6734 1186.21 40.032C1186.26 40.8371 1186.62 41.4409 1187.32 41.7931C1187.77 41.9943 1188.38 42.095 1189.13 41.9944C1189.23 41.9944 1189.38 41.944 1189.48 41.944C1190.69 41.7428 1191.85 41.2396 1192.15 39.3779C1192.75 35.9564 1192.4 32.2329 1192.4 32.2329C1192.2 28.9623 1191.59 27.6541 1190.24 27.4528C1189.83 27.4025 1189.33 27.3522 1188.83 27.3522C1188.63 27.3522 1188.33 27.3522 1188.07 27.4025C1187.47 27.4529 1186.62 27.5535 1185.76 28.0063C1185.21 28.3585 1184.7 28.7611 1184.2 29.4655C1183.05 31.0253 1182.84 31.9814 1182.14 33.9437C1181.94 29.2643 1181.39 27.2516 1178.12 27.2013C1175.1 27.1509 1174.04 28.1573 1173.04 30.3209C1172.79 30.8241 1172.38 31.7801 1172.08 32.5348C1170.88 35.9564 1169.77 39.9817 1169.62 42.5478C1169.57 43.6045 1170.37 44.7618 1171.68 44.5605ZM1137.33 96.4369C1137.48 95.3299 1137.43 94.7261 1137.03 94.3236C1136.68 93.9211 1136.07 93.8204 1135.27 93.8204C1135.12 93.8708 1135.02 93.8707 1134.92 93.8707C1132.6 94.0217 1132 95.179 1131.5 97.4935C1131.2 99.154 1132.2 100.11 1134.31 99.8081C1134.52 99.8081 1134.72 99.7578 1134.92 99.6571C1135.87 99.4056 1136.63 98.7514 1137.03 97.5438C1137.18 97.2419 1137.23 96.8897 1137.33 96.4369ZM1179.02 86.8264C1178.72 87.5812 1177.92 88.6881 1177.06 89.4429C1176.81 89.6441 1176.56 89.8957 1176.31 90.0467C1175.1 90.8518 1173.79 89.7448 1175.2 86.5245C1175.7 85.3672 1176.36 84.4616 1177.11 83.8578C1177.51 83.5055 1177.92 83.254 1178.37 83.103C1179.47 82.7508 1180.13 83.9081 1179.02 86.8264ZM1195.62 40.8874C1195.92 40.988 1196.22 40.988 1196.57 40.9377C1198.84 40.6358 1199.09 39.9314 1199.79 38.925C1200.45 37.969 1200.85 37.1136 1201.5 35.0003C1201.55 36.1576 1201.55 36.6105 1201.65 37.8181C1201.7 38.4722 1201.95 38.9753 1202.26 39.3276C1202.76 39.8307 1203.46 39.9817 1204.12 39.9817C1205.12 39.8811 1206.48 39.7804 1207.13 38.6735C1207.79 37.5665 1207.89 36.8621 1208.44 34.5978C1208.44 36.7614 1208.44 36.7111 1208.69 38.0193C1208.89 39.3276 1210.1 39.5792 1210.96 39.4785C1212.77 39.2269 1213.92 39.1263 1214.27 37.013C1214.63 34.95 1214.38 32.5348 1213.92 30.4215C1213.47 28.3586 1212.97 27.0503 1210.7 27C1209.3 27 1207.44 27.0503 1206.48 28.6101C1205.73 29.9184 1205.57 30.2706 1204.92 31.9813C1204.72 28.107 1204.07 27.0503 1201.95 27C1201.75 27 1201.55 27 1201.35 27C1198.94 27.1006 1197.63 27.6541 1196.17 31.126C1195.67 32.3336 1195.47 32.9877 1195.01 34.3462C1194.41 36.1073 1194.21 37.8684 1194.16 38.6735C1193.96 39.8307 1194.71 40.6861 1195.62 40.8874Z" fill="white"/>
<path d="M261.2 68.779L251.648 77.9818L270.941 67.8103C274.251 67.299 277.857 66.6263 281.759 65.7114C287.141 64.4467 292.495 62.6976 297.5 60.5987L302.748 66.8146L303.878 57.6925C323.521 47.8708 334.231 34.1204 312.22 32.6942C328.984 34.3357 323.279 46.3101 304.174 55.2707L308.049 23.895L265.721 64.4467C251.567 64.2045 250.894 56.4547 258.079 49.8621C264.968 43.5654 277.319 38.8294 284.154 36.4345C238.301 51.8264 232.919 69.9361 261.2 68.779ZM295.805 58.6613C291.15 60.3027 285.983 61.7289 280.359 62.8321L293.491 55.9166L295.805 58.6613Z" fill="white"/>
<path d="M283.992 101.985C312.112 101.985 334.985 79.112 334.985 50.9923C334.985 22.8725 312.112 0 283.992 0C255.873 0 233 22.8725 233 50.9923C232.973 79.112 255.873 101.985 283.992 101.985ZM283.992 1.07635C311.52 1.07635 333.908 23.4645 333.908 50.9923C333.908 78.5201 311.52 100.908 283.992 100.908C256.465 100.908 234.049 78.5201 234.049 50.9923C234.049 23.4645 256.465 1.07635 283.992 1.07635Z" fill="white"/>
<path d="M238.462 112.398C237.628 112.156 236.471 112.21 234.507 112.21V123.188H236.175V118.722H236.956C241.772 118.749 241.53 113.232 238.462 112.398ZM236.175 117.215V113.743C237.574 113.743 239.081 113.824 239.081 115.439C239.054 117.349 237.117 117.215 236.175 117.215Z" fill="white"/>
<path d="M241.826 117.645C241.826 122.893 248.015 125.234 251.621 121.735C253.908 119.502 253.881 115.923 251.621 113.69C247.961 110.03 241.826 112.748 241.826 117.645ZM244.732 120.659C242.23 118.264 243.71 113.555 247.585 113.555C249.899 113.555 251.648 115.331 251.648 117.699C251.648 121.386 247.369 123.215 244.732 120.659Z" fill="white"/>
<path d="M255.119 117.753C255.119 122.139 259.828 124.857 263.784 122.597V120.605C262.842 121.386 262.035 121.87 260.824 121.87C257.083 121.87 255.523 117.322 257.971 114.793C259.371 113.313 261.712 113.017 263.811 114.766V112.802C259.774 110.461 255.119 113.448 255.119 117.753Z" fill="white"/>
<path d="M271.856 112.21L267.578 116.596V112.21H265.937V123.216H267.578V118.318L271.534 123.216H273.767L268.977 117.43L274.09 112.21H271.856Z" fill="white"/>
<path d="M280.736 111.995C277.534 111.995 274.951 114.551 274.951 117.645C274.951 122.893 281.14 125.234 284.746 121.736C288.432 118.157 285.741 111.995 280.736 111.995ZM277.857 120.659C275.355 118.264 276.835 113.555 280.709 113.555C283.024 113.555 284.773 115.331 284.773 117.699C284.773 121.386 280.494 123.216 277.857 120.659Z" fill="white"/>
<path d="M288.244 117.753C288.244 122.139 292.953 124.857 296.909 122.597V120.605C295.967 121.386 295.159 121.87 293.949 121.87C290.208 121.87 288.648 117.322 291.096 114.793C292.495 113.313 294.837 113.017 296.935 114.766V112.802C292.899 110.461 288.244 113.448 288.244 117.753Z" fill="white"/>
<path d="M304.443 119.933L300.676 111.375L298.362 123.215H300.084L301.241 116.569L304.416 123.7L307.672 116.569L308.721 123.215H310.417L308.345 111.375L304.443 119.933Z" fill="white"/>
<path d="M311.412 117.915C311.412 123.162 317.601 125.503 321.207 122.005C323.494 119.772 323.468 116.193 321.207 113.959C317.548 110.3 311.412 113.017 311.412 117.915ZM320.023 120.929C317.521 123.458 313.081 121.763 313.081 117.969C313.081 114.174 317.574 112.533 320.05 115.062C321.611 116.596 321.638 119.287 320.023 120.929Z" fill="white"/>
<path d="M324.974 117.753C324.974 122.139 329.683 124.83 333.639 122.597V120.605C332.697 121.386 331.89 121.87 330.679 121.87C326.939 121.87 325.378 117.322 327.827 114.793C329.226 113.313 331.567 113.017 333.666 114.766V112.802C329.63 110.461 324.974 113.448 324.974 117.753Z" fill="white"/>
<defs>
<clipPath id="clip0">
<rect width="179" height="27" fill="white" transform="translate(0 48)"/>
</clipPath>
</defs>
</svg>
