<svg width="24" height="15" viewBox="0 0 24 15" fill="none" xmlns="http://www.w3.org/2000/svg">
<path d="M13.162 14.9153C13.771 14.9153 14.02 14.4826 14.013 13.94C13.982 11.8968 14.727 10.7969 16.072 12.2304C17.56 13.8164 17.868 14.9153 19.675 14.9153H22.875C23.683 14.9153 24.001 14.6382 24.001 14.2033C24.001 13.2835 22.58 11.6602 21.376 10.4686C19.69 8.80059 19.611 8.76116 21.063 6.75313C22.864 4.26014 25.22 1.06583 23.136 1.06583H19.155C18.383 1.06583 18.327 1.52947 18.052 2.22013C17.057 4.72165 15.166 7.96178 14.448 7.46617C13.697 6.94924 14.041 4.90177 14.098 1.85881C14.113 1.05518 14.109 0.50414 12.957 0.218496C12.328 0.06395 11.716 0 11.148 0C8.875 0 7.307 1.01574 8.198 1.19267C9.769 1.50496 9.618 5.12773 9.252 6.69237C8.614 9.41665 6.216 4.53512 5.217 2.10396C4.976 1.51988 4.902 1.06583 4.042 1.06583H0.787C0.295 1.06583 0 1.23637 0 1.6158C0 2.25744 2.96 8.77821 5.786 12.029C8.542 15.1999 11.266 14.9153 13.162 14.9153Z" fill="white"/>
</svg>
