<svg width="191" height="44" viewBox="0 0 191 44" fill="none" xmlns="http://www.w3.org/2000/svg">
<g clip-path="url(#clip0)">
<path fill-rule="evenodd" clip-rule="evenodd" d="M4.95841 28.4677L39.6673 22.4075V39.0094H4.95841V28.4677ZM39.6673 17.264L4.95841 23.3242V4.99084H39.7179V17.264H39.6673ZM0 44.0001H44.6257C44.6257 29.3334 44.6257 14.7177 44.6257 0.0510254H0C0 14.6668 0 29.3334 0 44.0001Z" fill="white"/>
<path d="M185.89 30.8101H181.538V17.6203H176.479V13.7499H191.051V17.6203H185.94V30.8101H185.89ZM163.425 30.8101H159.074V13.7499H163.425V19.8101H169.8V13.7499H174.151V30.8101H169.8V23.7314H163.425V30.8101ZM153.812 28.5693C152.142 30.3008 149.967 31.1666 147.437 31.1666C144.856 31.1666 142.731 30.3008 141.062 28.5693C139.392 26.8379 138.532 24.7499 138.532 22.3054C138.532 19.861 139.392 17.7221 141.062 16.0416C142.731 14.3101 144.907 13.4443 147.437 13.4443C150.017 13.4443 152.142 14.3101 153.812 16.0416C155.482 17.773 156.342 19.861 156.342 22.3054C156.342 24.7499 155.482 26.8379 153.812 28.5693ZM144.199 25.7175C145.059 26.6342 146.121 27.0925 147.386 27.0925C148.651 27.0925 149.714 26.6342 150.574 25.7175C151.434 24.8008 151.839 23.6295 151.839 22.2545C151.839 20.8795 151.434 19.7082 150.574 18.7916C149.714 17.8749 148.651 17.4166 147.386 17.4166C146.121 17.4166 145.059 17.8749 144.199 18.7916C143.338 19.7082 142.934 20.8286 142.934 22.2545C142.934 23.6804 143.389 24.8517 144.199 25.7175ZM129.526 31.1666C126.945 31.1666 124.82 30.6064 123.201 29.486V25.3101C123.96 25.8703 124.871 26.3286 125.883 26.6851C126.945 27.0416 127.957 27.1943 128.919 27.1943C130.032 27.1943 130.892 27.0416 131.499 26.6851C132.106 26.3286 132.41 25.8703 132.41 25.2592C132.41 24.2406 131.398 23.7314 129.374 23.7314H127.198V20.2684H129.88C131.347 20.2684 132.056 19.8101 132.056 18.8425C132.056 18.3842 131.803 18.0786 131.347 17.824C130.892 17.5693 130.234 17.4675 129.374 17.4675C127.35 17.4675 125.478 17.9258 123.758 18.8425V15.074C125.63 14.0554 127.553 13.5462 129.576 13.5462C131.651 13.5462 133.27 14.0045 134.535 14.9721C135.749 15.9397 136.356 17.111 136.356 18.5879C136.356 19.3008 136.154 19.9629 135.8 20.523C135.395 21.0832 134.94 21.5416 134.332 21.8471C136.053 22.6619 136.913 23.986 136.913 25.8193C136.913 27.3471 136.255 28.6712 134.889 29.7406C133.573 30.6573 131.752 31.1666 129.526 31.1666ZM109.338 30.8101H105.695V13.7499H110.046V23.3749L117.029 13.7499H120.823V30.8101H116.472V21.0832L109.338 30.8101ZM94.1086 17.4675V20.8795H96.9925C97.5997 20.8795 98.1056 20.7267 98.5104 20.4212C98.8646 20.1156 99.067 19.7082 99.067 19.148C99.067 18.5879 98.8646 18.1804 98.5104 17.9258C98.1562 17.6203 97.6503 17.4675 96.9925 17.4675H94.1086ZM94.1086 30.8101H89.7573V13.7499H97.2961C99.2188 13.7499 100.686 14.2592 101.799 15.2267C102.912 16.1943 103.469 17.5184 103.469 19.0971C103.469 20.6758 102.912 21.949 101.799 22.9675C100.686 23.9351 99.2188 24.4443 97.2961 24.4443H94.1086V30.8101ZM84.4953 28.5693C82.8256 30.3008 80.65 31.1666 78.1202 31.1666C75.5398 31.1666 73.4148 30.3008 71.7451 28.5693C70.0754 26.8379 69.2153 24.7499 69.2153 22.3054C69.2153 19.861 70.0754 17.7221 71.7451 16.0416C73.4148 14.3101 75.5904 13.4443 78.1202 13.4443C80.7006 13.4443 82.8256 14.3101 84.4953 16.0416C86.165 17.773 87.0251 19.861 87.0251 22.3054C87.0251 24.7499 86.2156 26.8379 84.4953 28.5693ZM74.9327 25.7175C75.7928 26.6342 76.8553 27.0925 78.1202 27.0925C79.3851 27.0925 80.4476 26.6342 81.3078 25.7175C82.1679 24.8008 82.5727 23.6295 82.5727 22.2545C82.5727 20.8795 82.1679 19.7082 81.3078 18.7916C80.4476 17.8749 79.3851 17.4166 78.1202 17.4166C76.8553 17.4166 75.7928 17.8749 74.9327 18.7916C74.0725 19.7082 73.6678 20.8286 73.6678 22.2545C73.6678 23.6804 74.0725 24.8517 74.9327 25.7175ZM60.0574 30.8101H55.7062V13.7499H68.2034V17.6203H60.0574V30.8101Z" fill="white"/>
</g>
<defs>
<clipPath id="clip0">
<rect width="191" height="44" fill="white"/>
</clipPath>
</defs>
</svg>
